<svg xmlns="http://www.w3.org/2000/svg" xmlns:xlink="http://www.w3.org/1999/xlink" width="600" height="400" viewBox="0 0 2400 1600">
<defs>
  <clipPath id="clip920">
    <rect x="0" y="0" width="2400" height="1600"></rect>
  </clipPath>
</defs>
<path clip-path="url(#clip920)" d="M0 1600 L2400 1600 L2400 0 L0 0  Z" fill="#ffffff" fill-rule="evenodd" fill-opacity="1"></path>
<defs>
  <clipPath id="clip921">
    <rect x="480" y="0" width="1681" height="1600"></rect>
  </clipPath>
</defs>
<path clip-path="url(#clip920)" d="M169.121 1486.45 L2352.76 1486.45 L2352.76 47.2441 L169.121 47.2441  Z" fill="#ffffff" fill-rule="evenodd" fill-opacity="1"></path>
<defs>
  <clipPath id="clip922">
    <rect x="169" y="47" width="2185" height="1440"></rect>
  </clipPath>
</defs>
<polyline clip-path="url(#clip922)" style="stroke:#000000; stroke-linecap:round; stroke-linejoin:round; stroke-width:2; stroke-opacity:0.1; fill:none" points="230.922,1486.45 230.922,47.2441 "></polyline>
<polyline clip-path="url(#clip922)" style="stroke:#000000; stroke-linecap:round; stroke-linejoin:round; stroke-width:2; stroke-opacity:0.1; fill:none" points="745.93,1486.45 745.93,47.2441 "></polyline>
<polyline clip-path="url(#clip922)" style="stroke:#000000; stroke-linecap:round; stroke-linejoin:round; stroke-width:2; stroke-opacity:0.1; fill:none" points="1260.94,1486.45 1260.94,47.2441 "></polyline>
<polyline clip-path="url(#clip922)" style="stroke:#000000; stroke-linecap:round; stroke-linejoin:round; stroke-width:2; stroke-opacity:0.1; fill:none" points="1775.95,1486.45 1775.95,47.2441 "></polyline>
<polyline clip-path="url(#clip922)" style="stroke:#000000; stroke-linecap:round; stroke-linejoin:round; stroke-width:2; stroke-opacity:0.1; fill:none" points="2290.95,1486.45 2290.95,47.2441 "></polyline>
<polyline clip-path="url(#clip920)" style="stroke:#000000; stroke-linecap:round; stroke-linejoin:round; stroke-width:4; stroke-opacity:1; fill:none" points="169.121,1486.45 2352.76,1486.45 "></polyline>
<polyline clip-path="url(#clip920)" style="stroke:#000000; stroke-linecap:round; stroke-linejoin:round; stroke-width:4; stroke-opacity:1; fill:none" points="230.922,1486.45 230.922,1467.55 "></polyline>
<polyline clip-path="url(#clip920)" style="stroke:#000000; stroke-linecap:round; stroke-linejoin:round; stroke-width:4; stroke-opacity:1; fill:none" points="745.93,1486.45 745.93,1467.55 "></polyline>
<polyline clip-path="url(#clip920)" style="stroke:#000000; stroke-linecap:round; stroke-linejoin:round; stroke-width:4; stroke-opacity:1; fill:none" points="1260.94,1486.45 1260.94,1467.55 "></polyline>
<polyline clip-path="url(#clip920)" style="stroke:#000000; stroke-linecap:round; stroke-linejoin:round; stroke-width:4; stroke-opacity:1; fill:none" points="1775.95,1486.45 1775.95,1467.55 "></polyline>
<polyline clip-path="url(#clip920)" style="stroke:#000000; stroke-linecap:round; stroke-linejoin:round; stroke-width:4; stroke-opacity:1; fill:none" points="2290.95,1486.45 2290.95,1467.55 "></polyline>
<path clip-path="url(#clip920)" d="M208.307 1517.37 Q204.696 1517.37 202.867 1520.93 Q201.061 1524.47 201.061 1531.6 Q201.061 1538.71 202.867 1542.27 Q204.696 1545.82 208.307 1545.82 Q211.941 1545.82 213.746 1542.27 Q215.575 1538.71 215.575 1531.6 Q215.575 1524.47 213.746 1520.93 Q211.941 1517.37 208.307 1517.37 M208.307 1513.66 Q214.117 1513.66 217.172 1518.27 Q220.251 1522.85 220.251 1531.6 Q220.251 1540.33 217.172 1544.94 Q214.117 1549.52 208.307 1549.52 Q202.497 1549.52 199.418 1544.94 Q196.362 1540.33 196.362 1531.6 Q196.362 1522.85 199.418 1518.27 Q202.497 1513.66 208.307 1513.66 Z" fill="#000000" fill-rule="nonzero" fill-opacity="1"></path><path clip-path="url(#clip920)" d="M228.469 1542.97 L233.353 1542.97 L233.353 1548.85 L228.469 1548.85 L228.469 1542.97 Z" fill="#000000" fill-rule="nonzero" fill-opacity="1"></path><path clip-path="url(#clip920)" d="M253.538 1517.37 Q249.927 1517.37 248.098 1520.93 Q246.293 1524.47 246.293 1531.6 Q246.293 1538.71 248.098 1542.27 Q249.927 1545.82 253.538 1545.82 Q257.172 1545.82 258.978 1542.27 Q260.806 1538.71 260.806 1531.6 Q260.806 1524.47 258.978 1520.93 Q257.172 1517.37 253.538 1517.37 M253.538 1513.66 Q259.348 1513.66 262.404 1518.27 Q265.482 1522.85 265.482 1531.6 Q265.482 1540.33 262.404 1544.94 Q259.348 1549.52 253.538 1549.52 Q247.728 1549.52 244.649 1544.94 Q241.594 1540.33 241.594 1531.6 Q241.594 1522.85 244.649 1518.27 Q247.728 1513.66 253.538 1513.66 Z" fill="#000000" fill-rule="nonzero" fill-opacity="1"></path><path clip-path="url(#clip920)" d="M717.667 1544.91 L733.986 1544.91 L733.986 1548.85 L712.042 1548.85 L712.042 1544.91 Q714.704 1542.16 719.287 1537.53 Q723.894 1532.88 725.074 1531.53 Q727.319 1529.01 728.199 1527.27 Q729.102 1525.51 729.102 1523.82 Q729.102 1521.07 727.157 1519.33 Q725.236 1517.6 722.134 1517.6 Q719.935 1517.6 717.482 1518.36 Q715.051 1519.13 712.273 1520.68 L712.273 1515.95 Q715.097 1514.82 717.551 1514.24 Q720.005 1513.66 722.042 1513.66 Q727.412 1513.66 730.606 1516.35 Q733.801 1519.03 733.801 1523.52 Q733.801 1525.65 732.991 1527.57 Q732.204 1529.47 730.097 1532.07 Q729.519 1532.74 726.417 1535.95 Q723.315 1539.15 717.667 1544.91 Z" fill="#000000" fill-rule="nonzero" fill-opacity="1"></path><path clip-path="url(#clip920)" d="M743.801 1542.97 L748.685 1542.97 L748.685 1548.85 L743.801 1548.85 L743.801 1542.97 Z" fill="#000000" fill-rule="nonzero" fill-opacity="1"></path><path clip-path="url(#clip920)" d="M758.916 1514.29 L777.273 1514.29 L777.273 1518.22 L763.199 1518.22 L763.199 1526.7 Q764.217 1526.35 765.236 1526.19 Q766.254 1526 767.273 1526 Q773.06 1526 776.44 1529.17 Q779.819 1532.34 779.819 1537.76 Q779.819 1543.34 776.347 1546.44 Q772.875 1549.52 766.555 1549.52 Q764.379 1549.52 762.111 1549.15 Q759.866 1548.78 757.458 1548.04 L757.458 1543.34 Q759.541 1544.47 761.764 1545.03 Q763.986 1545.58 766.463 1545.58 Q770.467 1545.58 772.805 1543.48 Q775.143 1541.37 775.143 1537.76 Q775.143 1534.15 772.805 1532.04 Q770.467 1529.94 766.463 1529.94 Q764.588 1529.94 762.713 1530.35 Q760.861 1530.77 758.916 1531.65 L758.916 1514.29 Z" fill="#000000" fill-rule="nonzero" fill-opacity="1"></path><path clip-path="url(#clip920)" d="M1228.1 1514.29 L1246.46 1514.29 L1246.46 1518.22 L1232.39 1518.22 L1232.39 1526.7 Q1233.4 1526.35 1234.42 1526.19 Q1235.44 1526 1236.46 1526 Q1242.25 1526 1245.63 1529.17 Q1249.01 1532.34 1249.01 1537.76 Q1249.01 1543.34 1245.53 1546.44 Q1242.06 1549.52 1235.74 1549.52 Q1233.57 1549.52 1231.3 1549.15 Q1229.05 1548.78 1226.64 1548.04 L1226.64 1543.34 Q1228.73 1544.47 1230.95 1545.03 Q1233.17 1545.58 1235.65 1545.58 Q1239.65 1545.58 1241.99 1543.48 Q1244.33 1541.37 1244.33 1537.76 Q1244.33 1534.15 1241.99 1532.04 Q1239.65 1529.94 1235.65 1529.94 Q1233.77 1529.94 1231.9 1530.35 Q1230.05 1530.77 1228.1 1531.65 L1228.1 1514.29 Z" fill="#000000" fill-rule="nonzero" fill-opacity="1"></path><path clip-path="url(#clip920)" d="M1258.22 1542.97 L1263.1 1542.97 L1263.1 1548.85 L1258.22 1548.85 L1258.22 1542.97 Z" fill="#000000" fill-rule="nonzero" fill-opacity="1"></path><path clip-path="url(#clip920)" d="M1283.29 1517.37 Q1279.68 1517.37 1277.85 1520.93 Q1276.04 1524.47 1276.04 1531.6 Q1276.04 1538.71 1277.85 1542.27 Q1279.68 1545.82 1283.29 1545.82 Q1286.92 1545.82 1288.73 1542.27 Q1290.56 1538.71 1290.56 1531.6 Q1290.56 1524.47 1288.73 1520.93 Q1286.92 1517.37 1283.29 1517.37 M1283.29 1513.66 Q1289.1 1513.66 1292.15 1518.27 Q1295.23 1522.85 1295.23 1531.6 Q1295.23 1540.33 1292.15 1544.94 Q1289.1 1549.52 1283.29 1549.52 Q1277.48 1549.52 1274.4 1544.94 Q1271.34 1540.33 1271.34 1531.6 Q1271.34 1522.85 1274.4 1518.27 Q1277.48 1513.66 1283.29 1513.66 Z" fill="#000000" fill-rule="nonzero" fill-opacity="1"></path><path clip-path="url(#clip920)" d="M1742.27 1514.29 L1764.49 1514.29 L1764.49 1516.28 L1751.94 1548.85 L1747.06 1548.85 L1758.86 1518.22 L1742.27 1518.22 L1742.27 1514.29 Z" fill="#000000" fill-rule="nonzero" fill-opacity="1"></path><path clip-path="url(#clip920)" d="M1773.61 1542.97 L1778.49 1542.97 L1778.49 1548.85 L1773.61 1548.85 L1773.61 1542.97 Z" fill="#000000" fill-rule="nonzero" fill-opacity="1"></path><path clip-path="url(#clip920)" d="M1788.72 1514.29 L1807.08 1514.29 L1807.08 1518.22 L1793.01 1518.22 L1793.01 1526.7 Q1794.03 1526.35 1795.04 1526.19 Q1796.06 1526 1797.08 1526 Q1802.87 1526 1806.25 1529.17 Q1809.63 1532.34 1809.63 1537.76 Q1809.63 1543.34 1806.15 1546.44 Q1802.68 1549.52 1796.36 1549.52 Q1794.19 1549.52 1791.92 1549.15 Q1789.67 1548.78 1787.27 1548.04 L1787.27 1543.34 Q1789.35 1544.47 1791.57 1545.03 Q1793.79 1545.58 1796.27 1545.58 Q1800.28 1545.58 1802.61 1543.48 Q1804.95 1541.37 1804.95 1537.76 Q1804.95 1534.15 1802.61 1532.04 Q1800.28 1529.94 1796.27 1529.94 Q1794.4 1529.94 1792.52 1530.35 Q1790.67 1530.77 1788.72 1531.65 L1788.72 1514.29 Z" fill="#000000" fill-rule="nonzero" fill-opacity="1"></path><path clip-path="url(#clip920)" d="M2243.03 1544.91 L2250.67 1544.91 L2250.67 1518.55 L2242.36 1520.21 L2242.36 1515.95 L2250.62 1514.29 L2255.3 1514.29 L2255.3 1544.91 L2262.93 1544.91 L2262.93 1548.85 L2243.03 1548.85 L2243.03 1544.91 Z" fill="#000000" fill-rule="nonzero" fill-opacity="1"></path><path clip-path="url(#clip920)" d="M2282.38 1517.37 Q2278.77 1517.37 2276.94 1520.93 Q2275.13 1524.47 2275.13 1531.6 Q2275.13 1538.71 2276.94 1542.27 Q2278.77 1545.82 2282.38 1545.82 Q2286.01 1545.82 2287.82 1542.27 Q2289.65 1538.71 2289.65 1531.6 Q2289.65 1524.47 2287.82 1520.93 Q2286.01 1517.37 2282.38 1517.37 M2282.38 1513.66 Q2288.19 1513.66 2291.24 1518.27 Q2294.32 1522.85 2294.32 1531.6 Q2294.32 1540.33 2291.24 1544.94 Q2288.19 1549.52 2282.38 1549.52 Q2276.57 1549.52 2273.49 1544.94 Q2270.43 1540.33 2270.43 1531.6 Q2270.43 1522.85 2273.49 1518.27 Q2276.57 1513.66 2282.38 1513.66 Z" fill="#000000" fill-rule="nonzero" fill-opacity="1"></path><path clip-path="url(#clip920)" d="M2302.54 1542.97 L2307.42 1542.97 L2307.42 1548.85 L2302.54 1548.85 L2302.54 1542.97 Z" fill="#000000" fill-rule="nonzero" fill-opacity="1"></path><path clip-path="url(#clip920)" d="M2327.61 1517.37 Q2324 1517.37 2322.17 1520.93 Q2320.36 1524.47 2320.36 1531.6 Q2320.36 1538.71 2322.17 1542.27 Q2324 1545.82 2327.61 1545.82 Q2331.24 1545.82 2333.05 1542.27 Q2334.88 1538.71 2334.88 1531.6 Q2334.88 1524.47 2333.05 1520.93 Q2331.24 1517.37 2327.61 1517.37 M2327.61 1513.66 Q2333.42 1513.66 2336.48 1518.27 Q2339.55 1522.85 2339.55 1531.6 Q2339.55 1540.33 2336.48 1544.94 Q2333.42 1549.52 2327.61 1549.52 Q2321.8 1549.52 2318.72 1544.94 Q2315.67 1540.33 2315.67 1531.6 Q2315.67 1522.85 2318.72 1518.27 Q2321.8 1513.66 2327.61 1513.66 Z" fill="#000000" fill-rule="nonzero" fill-opacity="1"></path><polyline clip-path="url(#clip922)" style="stroke:#000000; stroke-linecap:round; stroke-linejoin:round; stroke-width:2; stroke-opacity:0.1; fill:none" points="169.121,1445.72 2352.76,1445.72 "></polyline>
<polyline clip-path="url(#clip922)" style="stroke:#000000; stroke-linecap:round; stroke-linejoin:round; stroke-width:2; stroke-opacity:0.1; fill:none" points="169.121,1106.28 2352.76,1106.28 "></polyline>
<polyline clip-path="url(#clip922)" style="stroke:#000000; stroke-linecap:round; stroke-linejoin:round; stroke-width:2; stroke-opacity:0.1; fill:none" points="169.121,766.846 2352.76,766.846 "></polyline>
<polyline clip-path="url(#clip922)" style="stroke:#000000; stroke-linecap:round; stroke-linejoin:round; stroke-width:2; stroke-opacity:0.1; fill:none" points="169.121,427.411 2352.76,427.411 "></polyline>
<polyline clip-path="url(#clip922)" style="stroke:#000000; stroke-linecap:round; stroke-linejoin:round; stroke-width:2; stroke-opacity:0.1; fill:none" points="169.121,87.9763 2352.76,87.9763 "></polyline>
<polyline clip-path="url(#clip920)" style="stroke:#000000; stroke-linecap:round; stroke-linejoin:round; stroke-width:4; stroke-opacity:1; fill:none" points="169.121,1486.45 169.121,47.2441 "></polyline>
<polyline clip-path="url(#clip920)" style="stroke:#000000; stroke-linecap:round; stroke-linejoin:round; stroke-width:4; stroke-opacity:1; fill:none" points="169.121,1445.72 188.019,1445.72 "></polyline>
<polyline clip-path="url(#clip920)" style="stroke:#000000; stroke-linecap:round; stroke-linejoin:round; stroke-width:4; stroke-opacity:1; fill:none" points="169.121,1106.28 188.019,1106.28 "></polyline>
<polyline clip-path="url(#clip920)" style="stroke:#000000; stroke-linecap:round; stroke-linejoin:round; stroke-width:4; stroke-opacity:1; fill:none" points="169.121,766.846 188.019,766.846 "></polyline>
<polyline clip-path="url(#clip920)" style="stroke:#000000; stroke-linecap:round; stroke-linejoin:round; stroke-width:4; stroke-opacity:1; fill:none" points="169.121,427.411 188.019,427.411 "></polyline>
<polyline clip-path="url(#clip920)" style="stroke:#000000; stroke-linecap:round; stroke-linejoin:round; stroke-width:4; stroke-opacity:1; fill:none" points="169.121,87.9763 188.019,87.9763 "></polyline>
<path clip-path="url(#clip920)" d="M121.177 1431.51 Q117.566 1431.51 115.737 1435.08 Q113.932 1438.62 113.932 1445.75 Q113.932 1452.86 115.737 1456.42 Q117.566 1459.96 121.177 1459.96 Q124.811 1459.96 126.617 1456.42 Q128.445 1452.86 128.445 1445.75 Q128.445 1438.62 126.617 1435.08 Q124.811 1431.51 121.177 1431.51 M121.177 1427.81 Q126.987 1427.81 130.043 1432.42 Q133.121 1437 133.121 1445.75 Q133.121 1454.48 130.043 1459.08 Q126.987 1463.67 121.177 1463.67 Q115.367 1463.67 112.288 1459.08 Q109.233 1454.48 109.233 1445.75 Q109.233 1437 112.288 1432.42 Q115.367 1427.81 121.177 1427.81 Z" fill="#000000" fill-rule="nonzero" fill-opacity="1"></path><path clip-path="url(#clip920)" d="M86.0382 1119.63 L102.358 1119.63 L102.358 1123.56 L80.4133 1123.56 L80.4133 1119.63 Q83.0753 1116.87 87.6586 1112.24 Q92.2651 1107.59 93.4456 1106.25 Q95.691 1103.72 96.5706 1101.99 Q97.4734 1100.23 97.4734 1098.54 Q97.4734 1095.78 95.5289 1094.05 Q93.6076 1092.31 90.5058 1092.31 Q88.3067 1092.31 85.8531 1093.07 Q83.4225 1093.84 80.6447 1095.39 L80.6447 1090.67 Q83.4688 1089.53 85.9225 1088.95 Q88.3762 1088.38 90.4132 1088.38 Q95.7836 1088.38 98.978 1091.06 Q102.172 1093.75 102.172 1098.24 Q102.172 1100.37 101.362 1102.29 Q100.575 1104.19 98.4687 1106.78 Q97.89 1107.45 94.7882 1110.67 Q91.6864 1113.86 86.0382 1119.63 Z" fill="#000000" fill-rule="nonzero" fill-opacity="1"></path><path clip-path="url(#clip920)" d="M112.219 1089 L130.575 1089 L130.575 1092.94 L116.501 1092.94 L116.501 1101.41 Q117.52 1101.06 118.538 1100.9 Q119.557 1100.71 120.575 1100.71 Q126.362 1100.71 129.742 1103.89 Q133.121 1107.06 133.121 1112.47 Q133.121 1118.05 129.649 1121.15 Q126.177 1124.23 119.857 1124.23 Q117.682 1124.23 115.413 1123.86 Q113.168 1123.49 110.76 1122.75 L110.76 1118.05 Q112.844 1119.19 115.066 1119.74 Q117.288 1120.3 119.765 1120.3 Q123.77 1120.3 126.107 1118.19 Q128.445 1116.08 128.445 1112.47 Q128.445 1108.86 126.107 1106.76 Q123.77 1104.65 119.765 1104.65 Q117.89 1104.65 116.015 1105.07 Q114.163 1105.48 112.219 1106.36 L112.219 1089 Z" fill="#000000" fill-rule="nonzero" fill-opacity="1"></path><path clip-path="url(#clip920)" d="M81.0614 749.566 L99.4178 749.566 L99.4178 753.501 L85.3438 753.501 L85.3438 761.973 Q86.3623 761.626 87.3808 761.464 Q88.3993 761.279 89.4178 761.279 Q95.2049 761.279 98.5845 764.45 Q101.964 767.621 101.964 773.038 Q101.964 778.617 98.4919 781.719 Q95.0197 784.797 88.7003 784.797 Q86.5243 784.797 84.2558 784.427 Q82.0105 784.057 79.6031 783.316 L79.6031 778.617 Q81.6864 779.751 83.9086 780.307 Q86.1308 780.862 88.6077 780.862 Q92.6123 780.862 94.9502 778.756 Q97.2882 776.649 97.2882 773.038 Q97.2882 769.427 94.9502 767.321 Q92.6123 765.214 88.6077 765.214 Q86.7327 765.214 84.8577 765.631 Q83.0058 766.047 81.0614 766.927 L81.0614 749.566 Z" fill="#000000" fill-rule="nonzero" fill-opacity="1"></path><path clip-path="url(#clip920)" d="M121.177 752.645 Q117.566 752.645 115.737 756.209 Q113.932 759.751 113.932 766.881 Q113.932 773.987 115.737 777.552 Q117.566 781.094 121.177 781.094 Q124.811 781.094 126.617 777.552 Q128.445 773.987 128.445 766.881 Q128.445 759.751 126.617 756.209 Q124.811 752.645 121.177 752.645 M121.177 748.941 Q126.987 748.941 130.043 753.547 Q133.121 758.131 133.121 766.881 Q133.121 775.608 130.043 780.214 Q126.987 784.797 121.177 784.797 Q115.367 784.797 112.288 780.214 Q109.233 775.608 109.233 766.881 Q109.233 758.131 112.288 753.547 Q115.367 748.941 121.177 748.941 Z" fill="#000000" fill-rule="nonzero" fill-opacity="1"></path><path clip-path="url(#clip920)" d="M80.8299 410.131 L103.052 410.131 L103.052 412.122 L90.5058 444.691 L85.6216 444.691 L97.4271 414.066 L80.8299 414.066 L80.8299 410.131 Z" fill="#000000" fill-rule="nonzero" fill-opacity="1"></path><path clip-path="url(#clip920)" d="M112.219 410.131 L130.575 410.131 L130.575 414.066 L116.501 414.066 L116.501 422.538 Q117.52 422.191 118.538 422.029 Q119.557 421.844 120.575 421.844 Q126.362 421.844 129.742 425.015 Q133.121 428.187 133.121 433.603 Q133.121 439.182 129.649 442.284 Q126.177 445.362 119.857 445.362 Q117.682 445.362 115.413 444.992 Q113.168 444.622 110.76 443.881 L110.76 439.182 Q112.844 440.316 115.066 440.872 Q117.288 441.427 119.765 441.427 Q123.77 441.427 126.107 439.321 Q128.445 437.214 128.445 433.603 Q128.445 429.992 126.107 427.886 Q123.77 425.779 119.765 425.779 Q117.89 425.779 116.015 426.196 Q114.163 426.613 112.219 427.492 L112.219 410.131 Z" fill="#000000" fill-rule="nonzero" fill-opacity="1"></path><path clip-path="url(#clip920)" d="M51.6634 101.321 L59.3023 101.321 L59.3023 74.9555 L50.9921 76.6222 L50.9921 72.3629 L59.256 70.6963 L63.9319 70.6963 L63.9319 101.321 L71.5707 101.321 L71.5707 105.256 L51.6634 105.256 L51.6634 101.321 Z" fill="#000000" fill-rule="nonzero" fill-opacity="1"></path><path clip-path="url(#clip920)" d="M91.0151 73.775 Q87.404 73.775 85.5753 77.3398 Q83.7697 80.8814 83.7697 88.011 Q83.7697 95.1174 85.5753 98.6822 Q87.404 102.224 91.0151 102.224 Q94.6493 102.224 96.4548 98.6822 Q98.2835 95.1174 98.2835 88.011 Q98.2835 80.8814 96.4548 77.3398 Q94.6493 73.775 91.0151 73.775 M91.0151 70.0713 Q96.8252 70.0713 99.8808 74.6777 Q102.959 79.261 102.959 88.011 Q102.959 96.7378 99.8808 101.344 Q96.8252 105.928 91.0151 105.928 Q85.2049 105.928 82.1262 101.344 Q79.0707 96.7378 79.0707 88.011 Q79.0707 79.261 82.1262 74.6777 Q85.2049 70.0713 91.0151 70.0713 Z" fill="#000000" fill-rule="nonzero" fill-opacity="1"></path><path clip-path="url(#clip920)" d="M121.177 73.775 Q117.566 73.775 115.737 77.3398 Q113.932 80.8814 113.932 88.011 Q113.932 95.1174 115.737 98.6822 Q117.566 102.224 121.177 102.224 Q124.811 102.224 126.617 98.6822 Q128.445 95.1174 128.445 88.011 Q128.445 80.8814 126.617 77.3398 Q124.811 73.775 121.177 73.775 M121.177 70.0713 Q126.987 70.0713 130.043 74.6777 Q133.121 79.261 133.121 88.011 Q133.121 96.7378 130.043 101.344 Q126.987 105.928 121.177 105.928 Q115.367 105.928 112.288 101.344 Q109.233 96.7378 109.233 88.011 Q109.233 79.261 112.288 74.6777 Q115.367 70.0713 121.177 70.0713 Z" fill="#000000" fill-rule="nonzero" fill-opacity="1"></path><polyline clip-path="url(#clip922)" style="stroke:#009af9; stroke-linecap:round; stroke-linejoin:round; stroke-width:4; stroke-opacity:1; fill:none" points="230.922,1445.72 251.731,1445.58 272.539,1445.16 293.348,1444.47 314.156,1443.5 334.964,1442.25 355.773,1440.73 376.581,1438.93 397.39,1436.85 418.198,1434.49 439.006,1431.86 459.815,1428.95 480.623,1425.77 501.432,1422.3 522.24,1418.56 543.048,1414.55 563.857,1410.25 584.665,1405.68 605.474,1400.83 626.282,1395.71 647.091,1390.3 667.899,1384.62 688.707,1378.67 709.516,1372.43 730.324,1365.92 751.133,1359.13 771.941,1352.07 792.749,1344.73 813.558,1337.11 834.366,1329.21 855.175,1321.04 875.983,1312.59 896.791,1303.86 917.6,1294.86 938.408,1285.57 959.217,1276.02 980.025,1266.18 1000.83,1256.07 1021.64,1245.68 1042.45,1235.01 1063.26,1224.07 1084.07,1212.85 1104.88,1201.35 1125.68,1189.57 1146.49,1177.52 1167.3,1165.19 1188.11,1152.58 1208.92,1139.7 1229.73,1126.54 1250.53,1113.1 1271.34,1099.39 1292.15,1085.4 1312.96,1071.13 1333.77,1056.58 1354.58,1041.76 1375.38,1026.66 1396.19,1011.28 1417,995.629 1437.81,979.698 1458.62,963.49 1479.43,947.005 1500.24,930.243 1521.04,913.204 1541.85,895.887 1562.66,878.294 1583.47,860.423 1604.28,842.276 1625.09,823.851 1645.89,805.15 1666.7,786.171 1687.51,766.915 1708.32,747.382 1729.13,727.573 1749.94,707.486 1770.74,687.122 1791.55,666.48 1812.36,645.562 1833.17,624.367 1853.98,602.895 1874.79,581.146 1895.6,559.119 1916.4,536.816 1937.21,514.235 1958.02,491.378 1978.83,468.243 1999.64,444.831 2020.45,421.143 2041.25,397.177 2062.06,372.934 2082.87,348.414 2103.68,323.617 2124.49,298.543 2145.3,273.192 2166.1,247.564 2186.91,221.658 2207.72,195.476 2228.53,169.017 2249.34,142.28 2270.15,115.267 2290.95,87.9763 "></polyline>
<path clip-path="url(#clip920)" d="M241.909 198.898 L485.504 198.898 L485.504 95.2176 L241.909 95.2176  Z" fill="#ffffff" fill-rule="evenodd" fill-opacity="1"></path>
<polyline clip-path="url(#clip920)" style="stroke:#000000; stroke-linecap:round; stroke-linejoin:round; stroke-width:4; stroke-opacity:1; fill:none" points="241.909,198.898 485.504,198.898 485.504,95.2176 241.909,95.2176 241.909,198.898 "></polyline>
<polyline clip-path="url(#clip920)" style="stroke:#009af9; stroke-linecap:round; stroke-linejoin:round; stroke-width:4; stroke-opacity:1; fill:none" points="266.172,147.058 411.747,147.058 "></polyline>
<path clip-path="url(#clip920)" d="M449.853 166.745 Q448.047 171.375 446.334 172.787 Q444.621 174.199 441.751 174.199 L438.348 174.199 L438.348 170.634 L440.848 170.634 Q442.607 170.634 443.579 169.8 Q444.552 168.967 445.732 165.865 L446.496 163.921 L436.01 138.412 L440.524 138.412 L448.626 158.689 L456.727 138.412 L461.241 138.412 L449.853 166.745 Z" fill="#000000" fill-rule="nonzero" fill-opacity="1"></path></svg>