<svg xmlns="http://www.w3.org/2000/svg" xmlns:xlink="http://www.w3.org/1999/xlink" width="600" height="400" viewBox="0 0 2400 1600">
<defs>
  <clipPath id="clip130">
    <rect x="0" y="0" width="2400" height="1600"></rect>
  </clipPath>
</defs>
<path clip-path="url(#clip130)" d="M0 1600 L2400 1600 L2400 0 L0 0  Z" fill="#ffffff" fill-rule="evenodd" fill-opacity="1"></path>
<defs>
  <clipPath id="clip131">
    <rect x="480" y="0" width="1681" height="1600"></rect>
  </clipPath>
</defs>
<path clip-path="url(#clip130)" d="M169.121 1486.45 L2352.76 1486.45 L2352.76 47.2441 L169.121 47.2441  Z" fill="#ffffff" fill-rule="evenodd" fill-opacity="1"></path>
<defs>
  <clipPath id="clip132">
    <rect x="169" y="47" width="2185" height="1440"></rect>
  </clipPath>
</defs>
<polyline clip-path="url(#clip132)" style="stroke:#000000; stroke-linecap:round; stroke-linejoin:round; stroke-width:2; stroke-opacity:0.1; fill:none" points="230.922,1486.45 230.922,47.2441 "></polyline>
<polyline clip-path="url(#clip132)" style="stroke:#000000; stroke-linecap:round; stroke-linejoin:round; stroke-width:2; stroke-opacity:0.1; fill:none" points="745.93,1486.45 745.93,47.2441 "></polyline>
<polyline clip-path="url(#clip132)" style="stroke:#000000; stroke-linecap:round; stroke-linejoin:round; stroke-width:2; stroke-opacity:0.1; fill:none" points="1260.94,1486.45 1260.94,47.2441 "></polyline>
<polyline clip-path="url(#clip132)" style="stroke:#000000; stroke-linecap:round; stroke-linejoin:round; stroke-width:2; stroke-opacity:0.1; fill:none" points="1775.95,1486.45 1775.95,47.2441 "></polyline>
<polyline clip-path="url(#clip132)" style="stroke:#000000; stroke-linecap:round; stroke-linejoin:round; stroke-width:2; stroke-opacity:0.1; fill:none" points="2290.95,1486.45 2290.95,47.2441 "></polyline>
<polyline clip-path="url(#clip130)" style="stroke:#000000; stroke-linecap:round; stroke-linejoin:round; stroke-width:4; stroke-opacity:1; fill:none" points="169.121,1486.45 2352.76,1486.45 "></polyline>
<polyline clip-path="url(#clip130)" style="stroke:#000000; stroke-linecap:round; stroke-linejoin:round; stroke-width:4; stroke-opacity:1; fill:none" points="230.922,1486.45 230.922,1467.55 "></polyline>
<polyline clip-path="url(#clip130)" style="stroke:#000000; stroke-linecap:round; stroke-linejoin:round; stroke-width:4; stroke-opacity:1; fill:none" points="745.93,1486.45 745.93,1467.55 "></polyline>
<polyline clip-path="url(#clip130)" style="stroke:#000000; stroke-linecap:round; stroke-linejoin:round; stroke-width:4; stroke-opacity:1; fill:none" points="1260.94,1486.45 1260.94,1467.55 "></polyline>
<polyline clip-path="url(#clip130)" style="stroke:#000000; stroke-linecap:round; stroke-linejoin:round; stroke-width:4; stroke-opacity:1; fill:none" points="1775.95,1486.45 1775.95,1467.55 "></polyline>
<polyline clip-path="url(#clip130)" style="stroke:#000000; stroke-linecap:round; stroke-linejoin:round; stroke-width:4; stroke-opacity:1; fill:none" points="2290.95,1486.45 2290.95,1467.55 "></polyline>
<path clip-path="url(#clip130)" d="M184.985 1532.02 L214.661 1532.02 L214.661 1535.95 L184.985 1535.95 L184.985 1532.02 Z" fill="#000000" fill-rule="nonzero" fill-opacity="1"></path><path clip-path="url(#clip130)" d="M225.564 1544.91 L233.202 1544.91 L233.202 1518.55 L224.892 1520.21 L224.892 1515.95 L233.156 1514.29 L237.832 1514.29 L237.832 1544.91 L245.471 1544.91 L245.471 1548.85 L225.564 1548.85 L225.564 1544.91 Z" fill="#000000" fill-rule="nonzero" fill-opacity="1"></path><path clip-path="url(#clip130)" d="M264.915 1517.37 Q261.304 1517.37 259.475 1520.93 Q257.67 1524.47 257.67 1531.6 Q257.67 1538.71 259.475 1542.27 Q261.304 1545.82 264.915 1545.82 Q268.549 1545.82 270.355 1542.27 Q272.184 1538.71 272.184 1531.6 Q272.184 1524.47 270.355 1520.93 Q268.549 1517.37 264.915 1517.37 M264.915 1513.66 Q270.725 1513.66 273.781 1518.27 Q276.86 1522.85 276.86 1531.6 Q276.86 1540.33 273.781 1544.94 Q270.725 1549.52 264.915 1549.52 Q259.105 1549.52 256.026 1544.94 Q252.971 1540.33 252.971 1531.6 Q252.971 1522.85 256.026 1518.27 Q259.105 1513.66 264.915 1513.66 Z" fill="#000000" fill-rule="nonzero" fill-opacity="1"></path><path clip-path="url(#clip130)" d="M715.572 1532.02 L745.248 1532.02 L745.248 1535.95 L715.572 1535.95 L715.572 1532.02 Z" fill="#000000" fill-rule="nonzero" fill-opacity="1"></path><path clip-path="url(#clip130)" d="M755.386 1514.29 L773.743 1514.29 L773.743 1518.22 L759.669 1518.22 L759.669 1526.7 Q760.687 1526.35 761.706 1526.19 Q762.724 1526 763.743 1526 Q769.53 1526 772.909 1529.17 Q776.289 1532.34 776.289 1537.76 Q776.289 1543.34 772.817 1546.44 Q769.345 1549.52 763.025 1549.52 Q760.849 1549.52 758.581 1549.15 Q756.335 1548.78 753.928 1548.04 L753.928 1543.34 Q756.011 1544.47 758.234 1545.03 Q760.456 1545.58 762.933 1545.58 Q766.937 1545.58 769.275 1543.48 Q771.613 1541.37 771.613 1537.76 Q771.613 1534.15 769.275 1532.04 Q766.937 1529.94 762.933 1529.94 Q761.058 1529.94 759.183 1530.35 Q757.331 1530.77 755.386 1531.65 L755.386 1514.29 Z" fill="#000000" fill-rule="nonzero" fill-opacity="1"></path><path clip-path="url(#clip130)" d="M1260.94 1517.37 Q1257.33 1517.37 1255.5 1520.93 Q1253.69 1524.47 1253.69 1531.6 Q1253.69 1538.71 1255.5 1542.27 Q1257.33 1545.82 1260.94 1545.82 Q1264.57 1545.82 1266.38 1542.27 Q1268.21 1538.71 1268.21 1531.6 Q1268.21 1524.47 1266.38 1520.93 Q1264.57 1517.37 1260.94 1517.37 M1260.94 1513.66 Q1266.75 1513.66 1269.8 1518.27 Q1272.88 1522.85 1272.88 1531.6 Q1272.88 1540.33 1269.8 1544.94 Q1266.75 1549.52 1260.94 1549.52 Q1255.13 1549.52 1252.05 1544.94 Q1248.99 1540.33 1248.99 1531.6 Q1248.99 1522.85 1252.05 1518.27 Q1255.13 1513.66 1260.94 1513.66 Z" fill="#000000" fill-rule="nonzero" fill-opacity="1"></path><path clip-path="url(#clip130)" d="M1766.22 1514.29 L1784.58 1514.29 L1784.58 1518.22 L1770.51 1518.22 L1770.51 1526.7 Q1771.53 1526.35 1772.54 1526.19 Q1773.56 1526 1774.58 1526 Q1780.37 1526 1783.75 1529.17 Q1787.13 1532.34 1787.13 1537.76 Q1787.13 1543.34 1783.66 1546.44 Q1780.18 1549.52 1773.86 1549.52 Q1771.69 1549.52 1769.42 1549.15 Q1767.17 1548.78 1764.77 1548.04 L1764.77 1543.34 Q1766.85 1544.47 1769.07 1545.03 Q1771.29 1545.58 1773.77 1545.58 Q1777.78 1545.58 1780.11 1543.48 Q1782.45 1541.37 1782.45 1537.76 Q1782.45 1534.15 1780.11 1532.04 Q1777.78 1529.94 1773.77 1529.94 Q1771.9 1529.94 1770.02 1530.35 Q1768.17 1530.77 1766.22 1531.65 L1766.22 1514.29 Z" fill="#000000" fill-rule="nonzero" fill-opacity="1"></path><path clip-path="url(#clip130)" d="M2265.64 1544.91 L2273.28 1544.91 L2273.28 1518.55 L2264.97 1520.21 L2264.97 1515.95 L2273.24 1514.29 L2277.91 1514.29 L2277.91 1544.91 L2285.55 1544.91 L2285.55 1548.85 L2265.64 1548.85 L2265.64 1544.91 Z" fill="#000000" fill-rule="nonzero" fill-opacity="1"></path><path clip-path="url(#clip130)" d="M2304.99 1517.37 Q2301.38 1517.37 2299.55 1520.93 Q2297.75 1524.47 2297.75 1531.6 Q2297.75 1538.71 2299.55 1542.27 Q2301.38 1545.82 2304.99 1545.82 Q2308.63 1545.82 2310.43 1542.27 Q2312.26 1538.71 2312.26 1531.6 Q2312.26 1524.47 2310.43 1520.93 Q2308.63 1517.37 2304.99 1517.37 M2304.99 1513.66 Q2310.8 1513.66 2313.86 1518.27 Q2316.94 1522.85 2316.94 1531.6 Q2316.94 1540.33 2313.86 1544.94 Q2310.8 1549.52 2304.99 1549.52 Q2299.18 1549.52 2296.11 1544.94 Q2293.05 1540.33 2293.05 1531.6 Q2293.05 1522.85 2296.11 1518.27 Q2299.18 1513.66 2304.99 1513.66 Z" fill="#000000" fill-rule="nonzero" fill-opacity="1"></path><polyline clip-path="url(#clip132)" style="stroke:#000000; stroke-linecap:round; stroke-linejoin:round; stroke-width:2; stroke-opacity:0.1; fill:none" points="169.121,1425.14 2352.76,1425.14 "></polyline>
<polyline clip-path="url(#clip132)" style="stroke:#000000; stroke-linecap:round; stroke-linejoin:round; stroke-width:2; stroke-opacity:0.1; fill:none" points="169.121,1219.43 2352.76,1219.43 "></polyline>
<polyline clip-path="url(#clip132)" style="stroke:#000000; stroke-linecap:round; stroke-linejoin:round; stroke-width:2; stroke-opacity:0.1; fill:none" points="169.121,1013.71 2352.76,1013.71 "></polyline>
<polyline clip-path="url(#clip132)" style="stroke:#000000; stroke-linecap:round; stroke-linejoin:round; stroke-width:2; stroke-opacity:0.1; fill:none" points="169.121,807.99 2352.76,807.99 "></polyline>
<polyline clip-path="url(#clip132)" style="stroke:#000000; stroke-linecap:round; stroke-linejoin:round; stroke-width:2; stroke-opacity:0.1; fill:none" points="169.121,602.272 2352.76,602.272 "></polyline>
<polyline clip-path="url(#clip132)" style="stroke:#000000; stroke-linecap:round; stroke-linejoin:round; stroke-width:2; stroke-opacity:0.1; fill:none" points="169.121,396.553 2352.76,396.553 "></polyline>
<polyline clip-path="url(#clip132)" style="stroke:#000000; stroke-linecap:round; stroke-linejoin:round; stroke-width:2; stroke-opacity:0.1; fill:none" points="169.121,190.835 2352.76,190.835 "></polyline>
<polyline clip-path="url(#clip130)" style="stroke:#000000; stroke-linecap:round; stroke-linejoin:round; stroke-width:4; stroke-opacity:1; fill:none" points="169.121,1486.45 169.121,47.2441 "></polyline>
<polyline clip-path="url(#clip130)" style="stroke:#000000; stroke-linecap:round; stroke-linejoin:round; stroke-width:4; stroke-opacity:1; fill:none" points="169.121,1425.14 188.019,1425.14 "></polyline>
<polyline clip-path="url(#clip130)" style="stroke:#000000; stroke-linecap:round; stroke-linejoin:round; stroke-width:4; stroke-opacity:1; fill:none" points="169.121,1219.43 188.019,1219.43 "></polyline>
<polyline clip-path="url(#clip130)" style="stroke:#000000; stroke-linecap:round; stroke-linejoin:round; stroke-width:4; stroke-opacity:1; fill:none" points="169.121,1013.71 188.019,1013.71 "></polyline>
<polyline clip-path="url(#clip130)" style="stroke:#000000; stroke-linecap:round; stroke-linejoin:round; stroke-width:4; stroke-opacity:1; fill:none" points="169.121,807.99 188.019,807.99 "></polyline>
<polyline clip-path="url(#clip130)" style="stroke:#000000; stroke-linecap:round; stroke-linejoin:round; stroke-width:4; stroke-opacity:1; fill:none" points="169.121,602.272 188.019,602.272 "></polyline>
<polyline clip-path="url(#clip130)" style="stroke:#000000; stroke-linecap:round; stroke-linejoin:round; stroke-width:4; stroke-opacity:1; fill:none" points="169.121,396.553 188.019,396.553 "></polyline>
<polyline clip-path="url(#clip130)" style="stroke:#000000; stroke-linecap:round; stroke-linejoin:round; stroke-width:4; stroke-opacity:1; fill:none" points="169.121,190.835 188.019,190.835 "></polyline>
<path clip-path="url(#clip130)" d="M121.177 1410.94 Q117.566 1410.94 115.737 1414.51 Q113.932 1418.05 113.932 1425.18 Q113.932 1432.29 115.737 1435.85 Q117.566 1439.39 121.177 1439.39 Q124.811 1439.39 126.617 1435.85 Q128.445 1432.29 128.445 1425.18 Q128.445 1418.05 126.617 1414.51 Q124.811 1410.94 121.177 1410.94 M121.177 1407.24 Q126.987 1407.24 130.043 1411.85 Q133.121 1416.43 133.121 1425.18 Q133.121 1433.91 130.043 1438.51 Q126.987 1443.1 121.177 1443.1 Q115.367 1443.1 112.288 1438.51 Q109.233 1433.91 109.233 1425.18 Q109.233 1416.43 112.288 1411.85 Q115.367 1407.24 121.177 1407.24 Z" fill="#000000" fill-rule="nonzero" fill-opacity="1"></path><path clip-path="url(#clip130)" d="M85.0429 1232.77 L101.362 1232.77 L101.362 1236.71 L79.4179 1236.71 L79.4179 1232.77 Q82.0799 1230.02 86.6632 1225.39 Q91.2697 1220.73 92.4502 1219.39 Q94.6956 1216.87 95.5752 1215.13 Q96.478 1213.37 96.478 1211.68 Q96.478 1208.93 94.5336 1207.19 Q92.6123 1205.46 89.5104 1205.46 Q87.3114 1205.46 84.8577 1206.22 Q82.4271 1206.98 79.6494 1208.53 L79.6494 1203.81 Q82.4734 1202.68 84.9271 1202.1 Q87.3808 1201.52 89.4178 1201.52 Q94.7882 1201.52 97.9826 1204.21 Q101.177 1206.89 101.177 1211.38 Q101.177 1213.51 100.367 1215.43 Q99.5798 1217.33 97.4734 1219.92 Q96.8947 1220.59 93.7928 1223.81 Q90.691 1227.01 85.0429 1232.77 Z" fill="#000000" fill-rule="nonzero" fill-opacity="1"></path><path clip-path="url(#clip130)" d="M121.177 1205.22 Q117.566 1205.22 115.737 1208.79 Q113.932 1212.33 113.932 1219.46 Q113.932 1226.57 115.737 1230.13 Q117.566 1233.67 121.177 1233.67 Q124.811 1233.67 126.617 1230.13 Q128.445 1226.57 128.445 1219.46 Q128.445 1212.33 126.617 1208.79 Q124.811 1205.22 121.177 1205.22 M121.177 1201.52 Q126.987 1201.52 130.043 1206.13 Q133.121 1210.71 133.121 1219.46 Q133.121 1228.19 130.043 1232.79 Q126.987 1237.38 121.177 1237.38 Q115.367 1237.38 112.288 1232.79 Q109.233 1228.19 109.233 1219.46 Q109.233 1210.71 112.288 1206.13 Q115.367 1201.52 121.177 1201.52 Z" fill="#000000" fill-rule="nonzero" fill-opacity="1"></path><path clip-path="url(#clip130)" d="M93.8623 1000.5 L82.0568 1018.95 L93.8623 1018.95 L93.8623 1000.5 M92.6354 996.428 L98.515 996.428 L98.515 1018.95 L103.446 1018.95 L103.446 1022.84 L98.515 1022.84 L98.515 1030.99 L93.8623 1030.99 L93.8623 1022.84 L78.2605 1022.84 L78.2605 1018.33 L92.6354 996.428 Z" fill="#000000" fill-rule="nonzero" fill-opacity="1"></path><path clip-path="url(#clip130)" d="M121.177 999.506 Q117.566 999.506 115.737 1003.07 Q113.932 1006.61 113.932 1013.74 Q113.932 1020.85 115.737 1024.41 Q117.566 1027.96 121.177 1027.96 Q124.811 1027.96 126.617 1024.41 Q128.445 1020.85 128.445 1013.74 Q128.445 1006.61 126.617 1003.07 Q124.811 999.506 121.177 999.506 M121.177 995.803 Q126.987 995.803 130.043 1000.41 Q133.121 1004.99 133.121 1013.74 Q133.121 1022.47 130.043 1027.08 Q126.987 1031.66 121.177 1031.66 Q115.367 1031.66 112.288 1027.08 Q109.233 1022.47 109.233 1013.74 Q109.233 1004.99 112.288 1000.41 Q115.367 995.803 121.177 995.803 Z" fill="#000000" fill-rule="nonzero" fill-opacity="1"></path><path clip-path="url(#clip130)" d="M91.5938 806.126 Q88.4456 806.126 86.5938 808.279 Q84.7651 810.432 84.7651 814.182 Q84.7651 817.909 86.5938 820.084 Q88.4456 822.237 91.5938 822.237 Q94.7419 822.237 96.5706 820.084 Q98.4224 817.909 98.4224 814.182 Q98.4224 810.432 96.5706 808.279 Q94.7419 806.126 91.5938 806.126 M100.876 791.473 L100.876 795.733 Q99.1169 794.899 97.3113 794.46 Q95.5289 794.02 93.7697 794.02 Q89.1401 794.02 86.6864 797.145 Q84.2558 800.27 83.9086 806.589 Q85.2743 804.575 87.3345 803.51 Q89.3947 802.423 91.8715 802.423 Q97.0798 802.423 100.089 805.594 Q103.121 808.742 103.121 814.182 Q103.121 819.506 99.9733 822.723 Q96.8252 825.941 91.5938 825.941 Q85.5984 825.941 82.4271 821.358 Q79.2559 816.751 79.2559 808.024 Q79.2559 799.83 83.1447 794.969 Q87.0336 790.085 93.5845 790.085 Q95.3437 790.085 97.1261 790.432 Q98.9317 790.779 100.876 791.473 Z" fill="#000000" fill-rule="nonzero" fill-opacity="1"></path><path clip-path="url(#clip130)" d="M121.177 793.788 Q117.566 793.788 115.737 797.353 Q113.932 800.895 113.932 808.024 Q113.932 815.131 115.737 818.696 Q117.566 822.237 121.177 822.237 Q124.811 822.237 126.617 818.696 Q128.445 815.131 128.445 808.024 Q128.445 800.895 126.617 797.353 Q124.811 793.788 121.177 793.788 M121.177 790.085 Q126.987 790.085 130.043 794.691 Q133.121 799.274 133.121 808.024 Q133.121 816.751 130.043 821.358 Q126.987 825.941 121.177 825.941 Q115.367 825.941 112.288 821.358 Q109.233 816.751 109.233 808.024 Q109.233 799.274 112.288 794.691 Q115.367 790.085 121.177 790.085 Z" fill="#000000" fill-rule="nonzero" fill-opacity="1"></path><path clip-path="url(#clip130)" d="M91.0151 603.14 Q87.6817 603.14 85.7605 604.922 Q83.8623 606.704 83.8623 609.829 Q83.8623 612.954 85.7605 614.737 Q87.6817 616.519 91.0151 616.519 Q94.3484 616.519 96.2697 614.737 Q98.1909 612.931 98.1909 609.829 Q98.1909 606.704 96.2697 604.922 Q94.3715 603.14 91.0151 603.14 M86.3392 601.149 Q83.3299 600.408 81.6401 598.348 Q79.9735 596.288 79.9735 593.325 Q79.9735 589.181 82.9133 586.774 Q85.8762 584.367 91.0151 584.367 Q96.1771 584.367 99.1169 586.774 Q102.057 589.181 102.057 593.325 Q102.057 596.288 100.367 598.348 Q98.7002 600.408 95.7141 601.149 Q99.0937 601.936 100.969 604.228 Q102.867 606.519 102.867 609.829 Q102.867 614.852 99.7882 617.538 Q96.7326 620.223 91.0151 620.223 Q85.2975 620.223 82.2188 617.538 Q79.1633 614.852 79.1633 609.829 Q79.1633 606.519 81.0614 604.228 Q82.9595 601.936 86.3392 601.149 M84.6262 593.765 Q84.6262 596.45 86.2929 597.954 Q87.9827 599.459 91.0151 599.459 Q94.0243 599.459 95.7141 597.954 Q97.4271 596.45 97.4271 593.765 Q97.4271 591.079 95.7141 589.575 Q94.0243 588.07 91.0151 588.07 Q87.9827 588.07 86.2929 589.575 Q84.6262 591.079 84.6262 593.765 Z" fill="#000000" fill-rule="nonzero" fill-opacity="1"></path><path clip-path="url(#clip130)" d="M121.177 588.07 Q117.566 588.07 115.737 591.635 Q113.932 595.177 113.932 602.306 Q113.932 609.413 115.737 612.977 Q117.566 616.519 121.177 616.519 Q124.811 616.519 126.617 612.977 Q128.445 609.413 128.445 602.306 Q128.445 595.177 126.617 591.635 Q124.811 588.07 121.177 588.07 M121.177 584.367 Q126.987 584.367 130.043 588.973 Q133.121 593.556 133.121 602.306 Q133.121 611.033 130.043 615.639 Q126.987 620.223 121.177 620.223 Q115.367 620.223 112.288 615.639 Q109.233 611.033 109.233 602.306 Q109.233 593.556 112.288 588.973 Q115.367 584.367 121.177 584.367 Z" fill="#000000" fill-rule="nonzero" fill-opacity="1"></path><path clip-path="url(#clip130)" d="M51.6634 409.898 L59.3023 409.898 L59.3023 383.533 L50.9921 385.199 L50.9921 380.94 L59.256 379.273 L63.9319 379.273 L63.9319 409.898 L71.5707 409.898 L71.5707 413.833 L51.6634 413.833 L51.6634 409.898 Z" fill="#000000" fill-rule="nonzero" fill-opacity="1"></path><path clip-path="url(#clip130)" d="M91.0151 382.352 Q87.404 382.352 85.5753 385.917 Q83.7697 389.459 83.7697 396.588 Q83.7697 403.695 85.5753 407.259 Q87.404 410.801 91.0151 410.801 Q94.6493 410.801 96.4548 407.259 Q98.2835 403.695 98.2835 396.588 Q98.2835 389.459 96.4548 385.917 Q94.6493 382.352 91.0151 382.352 M91.0151 378.648 Q96.8252 378.648 99.8808 383.255 Q102.959 387.838 102.959 396.588 Q102.959 405.315 99.8808 409.921 Q96.8252 414.505 91.0151 414.505 Q85.2049 414.505 82.1262 409.921 Q79.0707 405.315 79.0707 396.588 Q79.0707 387.838 82.1262 383.255 Q85.2049 378.648 91.0151 378.648 Z" fill="#000000" fill-rule="nonzero" fill-opacity="1"></path><path clip-path="url(#clip130)" d="M121.177 382.352 Q117.566 382.352 115.737 385.917 Q113.932 389.459 113.932 396.588 Q113.932 403.695 115.737 407.259 Q117.566 410.801 121.177 410.801 Q124.811 410.801 126.617 407.259 Q128.445 403.695 128.445 396.588 Q128.445 389.459 126.617 385.917 Q124.811 382.352 121.177 382.352 M121.177 378.648 Q126.987 378.648 130.043 383.255 Q133.121 387.838 133.121 396.588 Q133.121 405.315 130.043 409.921 Q126.987 414.505 121.177 414.505 Q115.367 414.505 112.288 409.921 Q109.233 405.315 109.233 396.588 Q109.233 387.838 112.288 383.255 Q115.367 378.648 121.177 378.648 Z" fill="#000000" fill-rule="nonzero" fill-opacity="1"></path><path clip-path="url(#clip130)" d="M51.6634 204.18 L59.3023 204.18 L59.3023 177.815 L50.9921 179.481 L50.9921 175.222 L59.256 173.555 L63.9319 173.555 L63.9319 204.18 L71.5707 204.18 L71.5707 208.115 L51.6634 208.115 L51.6634 204.18 Z" fill="#000000" fill-rule="nonzero" fill-opacity="1"></path><path clip-path="url(#clip130)" d="M85.0429 204.18 L101.362 204.18 L101.362 208.115 L79.4179 208.115 L79.4179 204.18 Q82.0799 201.426 86.6632 196.796 Q91.2697 192.143 92.4502 190.801 Q94.6956 188.277 95.5752 186.541 Q96.478 184.782 96.478 183.092 Q96.478 180.338 94.5336 178.602 Q92.6123 176.865 89.5104 176.865 Q87.3114 176.865 84.8577 177.629 Q82.4271 178.393 79.6494 179.944 L79.6494 175.222 Q82.4734 174.088 84.9271 173.509 Q87.3808 172.93 89.4178 172.93 Q94.7882 172.93 97.9826 175.615 Q101.177 178.301 101.177 182.791 Q101.177 184.921 100.367 186.842 Q99.5798 188.74 97.4734 191.333 Q96.8947 192.004 93.7928 195.222 Q90.691 198.416 85.0429 204.18 Z" fill="#000000" fill-rule="nonzero" fill-opacity="1"></path><path clip-path="url(#clip130)" d="M121.177 176.634 Q117.566 176.634 115.737 180.199 Q113.932 183.74 113.932 190.87 Q113.932 197.976 115.737 201.541 Q117.566 205.083 121.177 205.083 Q124.811 205.083 126.617 201.541 Q128.445 197.976 128.445 190.87 Q128.445 183.74 126.617 180.199 Q124.811 176.634 121.177 176.634 M121.177 172.93 Q126.987 172.93 130.043 177.537 Q133.121 182.12 133.121 190.87 Q133.121 199.597 130.043 204.203 Q126.987 208.787 121.177 208.787 Q115.367 208.787 112.288 204.203 Q109.233 199.597 109.233 190.87 Q109.233 182.12 112.288 177.537 Q115.367 172.93 121.177 172.93 Z" fill="#000000" fill-rule="nonzero" fill-opacity="1"></path><polyline clip-path="url(#clip132)" style="stroke:#009af9; stroke-linecap:round; stroke-linejoin:round; stroke-width:4; stroke-opacity:1; fill:none" points="230.922,87.9763 333.924,314.266 436.926,519.984 539.927,705.131 642.929,869.705 745.93,1013.71 848.932,1137.14 951.934,1240 1054.94,1322.28 1157.94,1384 1260.94,1425.14 1363.94,1445.72 1466.94,1445.72 1569.94,1425.14 1672.95,1384 1775.95,1322.28 1878.95,1240 1981.95,1137.14 2084.95,1013.71 2187.95,869.705 2290.95,705.131 "></polyline>
<path clip-path="url(#clip130)" d="M2009.17 198.898 L2279.97 198.898 L2279.97 95.2176 L2009.17 95.2176  Z" fill="#ffffff" fill-rule="evenodd" fill-opacity="1"></path>
<polyline clip-path="url(#clip130)" style="stroke:#000000; stroke-linecap:round; stroke-linejoin:round; stroke-width:4; stroke-opacity:1; fill:none" points="2009.17,198.898 2279.97,198.898 2279.97,95.2176 2009.17,95.2176 2009.17,198.898 "></polyline>
<polyline clip-path="url(#clip130)" style="stroke:#009af9; stroke-linecap:round; stroke-linejoin:round; stroke-width:4; stroke-opacity:1; fill:none" points="2033.44,147.058 2179.01,147.058 "></polyline>
<path clip-path="url(#clip130)" d="M2217.12 166.745 Q2215.31 171.375 2213.6 172.787 Q2211.89 174.199 2209.02 174.199 L2205.61 174.199 L2205.61 170.634 L2208.11 170.634 Q2209.87 170.634 2210.84 169.8 Q2211.82 168.967 2213 165.865 L2213.76 163.921 L2203.28 138.412 L2207.79 138.412 L2215.89 158.689 L2223.99 138.412 L2228.51 138.412 L2217.12 166.745 Z" fill="#000000" fill-rule="nonzero" fill-opacity="1"></path><path clip-path="url(#clip130)" d="M2235.8 160.402 L2243.44 160.402 L2243.44 134.037 L2235.13 135.703 L2235.13 131.444 L2243.39 129.778 L2248.07 129.778 L2248.07 160.402 L2255.71 160.402 L2255.71 164.338 L2235.8 164.338 L2235.8 160.402 Z" fill="#000000" fill-rule="nonzero" fill-opacity="1"></path></svg>